<svg width="32" height="32" viewBox="0 0 32 32" fill="none" xmlns="http://www.w3.org/2000/svg">
<path d="M15.2038 0.0201245C6.69048 0.42094 -0.0255789 7.45925 7.32388e-05 15.9197C0.00429077 18.41 0.600531 20.8636 1.73961 23.0782L0.0433613 31.2564C0.0226647 31.3587 0.0280838 31.4645 0.0591176 31.5641C0.0901514 31.6637 0.145798 31.7539 0.220911 31.8263C0.296025 31.8987 0.38818 31.951 0.488855 31.9783C0.589531 32.0057 0.695476 32.0072 0.796894 31.9827L8.86771 30.0845C11.0053 31.1408 13.3519 31.7061 15.7361 31.739C24.437 31.8721 31.6901 25.0133 31.9611 16.3798C32.2529 7.12096 24.5588 -0.423979 15.2038 0.0185212V0.0201245ZM24.8346 24.6574C23.6714 25.8165 22.2909 26.7345 20.7723 27.3591C19.2536 27.9836 17.6266 28.3023 15.9846 28.2968C14.0527 28.3027 12.1459 27.8592 10.4149 27.0014L9.29097 26.4451L4.3417 27.609L5.38382 22.5892L4.82909 21.5118C3.92982 19.7687 3.46349 17.8346 3.46953 15.8732C3.46953 12.5544 4.77138 9.43287 7.13458 7.0873C9.49008 4.75568 12.6702 3.44732 15.9846 3.44629C19.329 3.44629 22.4714 4.73852 24.8346 7.08569C25.9989 8.23305 26.9228 9.60096 27.5524 11.1095C28.182 12.618 28.5045 14.2369 28.5012 15.8716C28.5012 19.1614 27.1785 22.3327 24.8346 24.659V24.6574Z" fill="white"/>
<path d="M23.7426 19.3119L20.6467 18.4301C20.447 18.3727 20.2355 18.3702 20.0343 18.4226C19.8332 18.4751 19.6499 18.5807 19.5036 18.7283L18.7469 19.4947C18.5903 19.6533 18.3904 19.7622 18.1723 19.8078C17.9542 19.8534 17.7274 19.8337 17.5204 19.7512C16.0566 19.1628 12.9751 16.4437 12.1879 15.0825C12.0776 14.8902 12.0272 14.6694 12.0432 14.4483C12.0592 14.2272 12.1409 14.0159 12.2777 13.8416L12.9383 12.9918C13.0654 12.829 13.1459 12.6347 13.171 12.4296C13.1962 12.2246 13.165 12.0166 13.081 11.8279L11.7791 8.90352C11.7055 8.74007 11.5949 8.59592 11.4562 8.48242C11.3174 8.36891 11.1542 8.28913 10.9794 8.24935C10.8046 8.20958 10.623 8.21089 10.4488 8.25318C10.2746 8.29547 10.1126 8.37759 9.97545 8.49308C9.11129 9.21936 8.0852 10.3208 7.96175 11.5441C7.7421 13.6973 8.67199 16.4116 12.1895 19.6726C16.2538 23.4387 19.51 23.9373 21.6279 23.4259C22.8304 23.1373 23.7923 21.9781 24.3968 21.0306C24.4934 20.8801 24.5534 20.709 24.5719 20.5311C24.5904 20.3532 24.5669 20.1734 24.5033 20.0062C24.4397 19.839 24.3377 19.6891 24.2056 19.5685C24.0735 19.4479 23.9149 19.36 23.7426 19.3119Z" fill="white"/>
</svg>
