<svg width="40" height="40" viewBox="0 0 40 40" fill="none" xmlns="http://www.w3.org/2000/svg">
<path d="M20 33.3333C23.5362 33.3333 26.9276 31.9285 29.4281 29.428C31.9286 26.9275 33.3333 23.5361 33.3333 19.9999C33.3333 16.4637 31.9286 13.0723 29.4281 10.5718C26.9276 8.07134 23.5362 6.66659 20 6.66659C16.4638 6.66659 13.0724 8.07134 10.5719 10.5718C8.07143 13.0723 6.66668 16.4637 6.66668 19.9999C6.66668 23.5361 8.07143 26.9275 10.5719 29.428C13.0724 31.9285 16.4638 33.3333 20 33.3333ZM20 36.6666C10.795 36.6666 3.33334 29.2049 3.33334 19.9999C3.33334 10.7949 10.795 3.33325 20 3.33325C29.205 3.33325 36.6667 10.7949 36.6667 19.9999C36.6667 29.2049 29.205 36.6666 20 36.6666Z" fill="white"/>
<path d="M20 33.3333C20.7467 33.3333 21.865 32.3866 22.9117 30.2949C24.22 27.6783 25 23.9866 25 19.9999C25 16.0133 24.22 12.3216 22.9117 9.70492C21.865 7.61325 20.745 6.66659 20 6.66659C19.2533 6.66659 18.135 7.61325 17.0883 9.70492C15.78 12.3216 15 16.0133 15 19.9999C15 23.9866 15.78 27.6783 17.0883 30.2949C18.135 32.3866 19.255 33.3333 20 33.3333ZM20 36.6666C15.3983 36.6666 11.6667 29.2049 11.6667 19.9999C11.6667 10.7949 15.3983 3.33325 20 3.33325C24.6017 3.33325 28.3333 10.7949 28.3333 19.9999C28.3333 29.2049 24.6017 36.6666 20 36.6666Z" fill="white"/>
<path d="M6.66666 23.3333H33.3333V26.6666H6.66666V23.3333ZM6.66666 13.3333H33.3333V16.6666H6.66666V13.3333Z" fill="white"/>
</svg>
